<?xml version="1.0"?>
<svg width="1600" height="1200" xmlns="http://www.w3.org/2000/svg" style="vector-effect: non-scaling-stroke;" stroke="null">
 <!-- Created with Method Draw - http://github.com/duopixel/Method-Draw/ -->
 <g stroke="null">
  <title stroke="null">background</title>
  <rect stroke="null" fill="#fff" id="canvas_background" height="1202" width="1602" y="-1" x="-1"/>
  <g style="vector-effect: non-scaling-stroke;" stroke="null" display="none" overflow="visible" y="0" x="0" height="100%" width="100%" id="canvasGrid">
   <rect stroke="null" fill="url(#gridpattern)" stroke-width="0" y="0" x="0" height="100%" width="100%"/>
  </g>
 </g>
 <g stroke="null">
  <title stroke="null">Layer 1</title>
  <path stroke="#000" id="svg_2" d="m871.280334,743.006287c19.139099,-0.124939 38.297729,-0.234802 57.446228,-0.354431c0.116882,-18.232727 0.253174,-36.466675 0.380371,-54.695068c19.050903,0 38.112305,0 57.184692,0c0,-18.353638 0,-36.696167 0,-55.050171c19.548096,0 39.085327,0 58.633301,0c0,-17.893555 0,-35.798889 0,-53.687683c19.30603,0 38.620605,0 57.915405,0c0,-17.904419 0,-35.799072 0,-53.70343c28.71875,0 57.440796,0 86.159546,0c0,8.952393 0,17.904358 0,26.846558c-19.061279,0 -38.123535,0 -57.187744,0c0,18.119141 0,36.242859 0,54.366638c-19.314453,0 -38.618042,0 -57.92395,0c0,18.123901 0,36.247559 0,54.37146c-19.314331,0 -38.609619,0 -57.92395,0c0,18.123718 0,36.242126 0,54.366028c-19.548096,0 -39.096191,0 -58.645142,0c0,18.353271 0,36.696411 0,55.049622c-28.952026,0 -57.914673,0 -86.876099,0c1.293457,-8.892395 -2.200134,-18.921509 0.837341,-27.509521l0,0z" stroke-opacity="null" stroke-width="0" fill="#0f7699"/>
  <path stroke="#000" id="svg_7" d="m1168.825684,509.08783l45.240601,30.262573l-45.257935,30.285706l0.017334,-60.548279z" stroke-opacity="null" stroke-width="0" fill="#0f7699"/>
  <path stroke="#000" id="svg_19" d="m638.499878,648.752747l0,0c0,-15.876709 13.543152,-28.75 30.25,-28.75l0,0c8.022766,0 15.716736,3.02887 21.389771,8.419495c5.672974,5.393982 8.860229,12.708435 8.860229,20.330505l0,0c0,15.876648 -13.543274,28.75 -30.25,28.75l0,0c-16.706848,0 -30.25,-12.873352 -30.25,-28.75l0,0zm15.125,0l0,0c0,7.938354 6.771729,14.375 15.125,14.375c8.35321,0 15.125,-6.436646 15.125,-14.375c0,-7.938354 -6.77179,-14.375 -15.125,-14.375l0,0c-8.353271,0 -15.125,6.436646 -15.125,14.375z" fill-opacity="null" stroke-opacity="null" stroke-width="0" fill="#0f7699"/>
  <path stroke="#000" id="svg_20" d="m805.743591,662.773193l-2.045471,-7.092285c0.606689,-0.510559 1.152771,-1.083069 1.694458,-1.670532l7.132874,2.018738c0.736694,-1.080933 1.408447,-2.240906 1.984741,-3.435059l-5.312866,-5.105591c0.255676,-0.762634 0.481018,-1.527405 0.641418,-2.307129l7.132874,-1.77948c0.065063,-0.66864 0.095337,-1.32019 0.095337,-1.988831s-0.030273,-1.33728 -0.095337,-1.988831l-7.132874,-1.781616c-0.1604,-0.794678 -0.385742,-1.557312 -0.641418,-2.304993l5.312866,-5.105591c-0.576294,-1.194153 -1.248047,-2.354126 -1.984741,-3.452148l-7.132874,2.035828c-0.541687,-0.604553 -1.087769,-1.162109 -1.694458,-1.685486l2.045471,-7.094421c-1.087769,-0.747681 -2.270813,-1.384277 -3.484192,-1.956787l-5.117859,5.280762c-0.767029,-0.254211 -1.534058,-0.476379 -2.301086,-0.636597l-1.794006,-7.109375c-0.671753,-0.046997 -1.343384,-0.111084 -2.015076,-0.111084s-1.339111,0.064087 -1.980469,0.111084l-1.789734,7.109375c-0.801697,0.160217 -1.568726,0.382385 -2.335754,0.636597l-5.117798,-5.280762c-1.21344,0.57251 -2.36615,1.22406 -3.484131,1.971741l2.045349,7.094421c-0.606689,0.525513 -1.15271,1.080933 -1.694397,1.670532l-7.132874,-2.035828c-0.736755,1.098022 -1.373779,2.257996 -1.950134,3.452148l5.308533,5.120544c-0.255676,0.747681 -0.481018,1.510315 -0.641357,2.290039l-7.163269,1.781616c-0.030273,0.66864 -0.095337,1.32019 -0.095337,1.988831s0.065063,1.335144 0.095337,1.988831l7.163269,1.77948c0.160339,0.796814 0.385681,1.559448 0.641357,2.307129l-5.308533,5.105591c0.576355,1.194153 1.213379,2.354126 1.950134,3.452148l7.132874,-2.035828c0.541687,0.604553 1.087708,1.159973 1.694397,1.685486l-2.045349,7.094421c1.117981,0.747681 2.270691,1.382141 3.484131,1.956787l5.117798,-5.265808c0.767029,0.239258 1.534058,0.461426 2.335754,0.619507l1.789734,7.111511c0.641357,0.046997 1.308777,0.111084 1.980469,0.111084s1.343323,-0.064087 2.015076,-0.111084l1.794006,-7.111511c0.767029,-0.158081 1.564392,-0.380249 2.301086,-0.619507l5.148254,5.265808c1.182983,-0.574646 2.366028,-1.226196 3.453796,-1.973877zm-14.712219,-12.501221c-4.922913,0 -8.888,-3.975525 -8.888,-8.858948s3.965088,-8.858948 8.888,-8.858948s8.926941,3.960571 8.926941,8.858948s-3.999756,8.858948 -8.926941,8.858948zm40.587463,18.514709c0.065002,-1.431274 -0.160278,-2.879639 -0.606628,-4.310913l3.258728,-4.629211c-0.476685,-0.905762 -1.022705,-1.764526 -1.659668,-2.559204l-5.56427,1.159973c-1.122314,-0.954895 -2.400757,-1.685486 -3.774475,-2.210999l-1.598999,-5.423889c-0.992432,-0.175171 -2.015076,-0.269165 -3.072449,-0.269165l-2.556824,5.041504c-0.70636,0.143127 -1.43866,0.333252 -2.175415,0.604553c-0.671692,0.254211 -1.27832,0.57251 -1.889343,0.922852l-5.273865,-2.131958c-0.767029,0.683594 -1.47345,1.416321 -2.110474,2.210999l2.366089,5.137634c-0.671692,1.288147 -1.15271,2.672424 -1.343384,4.118652l-4.95752,2.768555c0.030396,1.016846 0.190674,2.018738 0.416016,3.03772l5.499268,1.352234c0.606628,1.367188 1.43866,2.591248 2.400696,3.625183l-0.896973,5.583984c0.83197,0.587463 1.729065,1.113098 2.656372,1.557434l4.476563,-3.435181c1.408386,0.365295 2.87738,0.508423 4.35083,0.382385l3.804749,4.182861c0.541687,-0.143127 1.05304,-0.301208 1.564392,-0.493469c0.450684,-0.175171 0.897034,-0.380249 1.31311,-0.587463l0.095276,-5.631226c1.217712,-0.890686 2.205811,-1.956665 3.037842,-3.148682l5.663818,-0.350342c0.381348,-0.937805 0.732361,-1.90979 0.957703,-2.911682l-4.381165,-3.59314zm-10.907349,5.231628c-3.133179,1.194153 -6.651978,-0.380249 -7.865356,-3.514099s0.381348,-6.632996 3.51886,-7.825012c3.163452,-1.194153 6.682251,0.380249 7.865234,3.499146c1.217773,3.131714 -0.350952,6.647949 -3.518738,7.839966z" stroke-width="0" fill="#0f7699"/>
  <line stroke="#000" stroke-linecap="null" stroke-linejoin="null" id="svg_38" y2="649.502751" x2="747.000074" y1="649.502751" x1="712.000063" fill-opacity="null" stroke-opacity="null" fill="none"/>
  <line stroke="#000" stroke-linecap="null" stroke-linejoin="null" id="svg_39" y2="647.502694" x2="840.501567" y1="647.502694" x1="888.503082" fill-opacity="null" stroke-opacity="null" fill="none"/>
  <path stroke="#000" id="svg_40" d="m552.999939,615.752747l0,0c0,-15.876709 13.543152,-28.75 30.25,-28.75l0,0c8.022766,0 15.716736,3.02887 21.389771,8.419495c5.672974,5.393982 8.860229,12.708435 8.860229,20.330505l0,0c0,15.876648 -13.543274,28.75 -30.25,28.75l0,0c-16.706848,0 -30.25,-12.873352 -30.25,-28.75l0,0zm15.125,0l0,0c0,7.938354 6.771729,14.375 15.125,14.375c8.35321,0 15.125,-6.436646 15.125,-14.375c0,-7.938354 -6.77179,-14.375 -15.125,-14.375l0,0c-8.353271,0 -15.125,6.436646 -15.125,14.375z" fill-opacity="null" stroke-opacity="null" stroke-width="0" fill="#0f7699"/>
  <path stroke="#000" id="svg_41" d="m553.999939,687.252686l0,0c0,-15.876709 13.543152,-28.75 30.25,-28.75l0,0c8.022766,0 15.716736,3.02887 21.389771,8.419495c5.672974,5.393982 8.860229,12.708435 8.860229,20.330505l0,0c0,15.876648 -13.543274,28.75 -30.25,28.75l0,0c-16.706848,0 -30.25,-12.873352 -30.25,-28.75l0,0zm15.125,0l0,0c0,7.938354 6.771729,14.375 15.125,14.375c8.35321,0 15.125,-6.436646 15.125,-14.375c0,-7.938354 -6.77179,-14.375 -15.125,-14.375l0,0c-8.353271,0 -15.125,6.436646 -15.125,14.375z" fill-opacity="null" stroke-opacity="null" stroke-width="0" fill="#0f7699"/>
  <path stroke="#000" id="svg_42" d="m553.499939,687.252686l0,0c0,-15.876709 13.543152,-28.75 30.25,-28.75l0,0c8.022766,0 15.716736,3.02887 21.389771,8.419495c5.672974,5.393982 8.860229,12.708435 8.860229,20.330505l0,0c0,15.876648 -13.543274,28.75 -30.25,28.75l0,0c-16.706848,0 -30.25,-12.873352 -30.25,-28.75l0,0zm15.125,0l0,0c0,7.938354 6.771729,14.375 15.125,14.375c8.35321,0 15.125,-6.436646 15.125,-14.375c0,-7.938354 -6.77179,-14.375 -15.125,-14.375l0,0c-8.353271,0 -15.125,6.436646 -15.125,14.375z" fill-opacity="null" stroke-opacity="null" stroke-width="0" fill="#0f7699"/>
  <path stroke="#000" id="svg_43" d="m475.5,649.752686l0,0c0,-15.876709 13.543152,-28.75 30.25,-28.75l0,0c8.022766,0 15.716736,3.028931 21.389771,8.419556c5.672974,5.393921 8.860229,12.708374 8.860229,20.330444l0,0c0,15.876709 -13.543274,28.750061 -30.25,28.750061l0,0c-16.706848,0 -30.25,-12.873352 -30.25,-28.750061l0,0zm15.125,0l0,0c0,7.938416 6.771729,14.375 15.125,14.375c8.35321,0 15.125,-6.436584 15.125,-14.375c0,-7.938354 -6.77179,-14.375 -15.125,-14.375l0,0c-8.353271,0 -15.125,6.436646 -15.125,14.375z" fill-opacity="null" stroke-opacity="null" stroke-width="0" fill="#0f7699"/>
  <path stroke="#000" id="svg_44" d="m475.5,649.752686l0,0c0,-15.876709 13.543152,-28.75 30.25,-28.75l0,0c8.022766,0 15.716736,3.028931 21.389771,8.419556c5.672974,5.393921 8.860229,12.708374 8.860229,20.330444l0,0c0,15.876709 -13.543274,28.750061 -30.25,28.750061l0,0c-16.706848,0 -30.25,-12.873352 -30.25,-28.750061l0,0zm15.125,0l0,0c0,7.938416 6.771729,14.375 15.125,14.375c8.35321,0 15.125,-6.436584 15.125,-14.375c0,-7.938354 -6.77179,-14.375 -15.125,-14.375l0,0c-8.353271,0 -15.125,6.436646 -15.125,14.375z" fill-opacity="null" stroke-opacity="null" stroke-width="0" fill="#0f7699"/>
  <path stroke="#000" id="svg_45" d="m398.500061,614.252686l0,0c0,-15.876648 13.543152,-28.749939 30.25,-28.749939l0,0c8.022766,0 15.716736,3.028931 21.389771,8.419495c5.672974,5.393921 8.860229,12.708374 8.860229,20.330444l0,0c0,15.876709 -13.543274,28.750122 -30.25,28.750122l0,0c-16.706848,0 -30.25,-12.873413 -30.25,-28.750122l0,0zm15.125,0l0,0c0,7.938477 6.771729,14.375 15.125,14.375c8.35321,0 15.125,-6.436523 15.125,-14.375c0,-7.938354 -6.77179,-14.375 -15.125,-14.375l0,0c-8.353271,0 -15.125,6.436646 -15.125,14.375z" fill-opacity="null" stroke-opacity="null" stroke-width="0" fill="#0f7699"/>
  <path stroke="#000" id="svg_46" d="m550.499939,547.252747l0,0c0,-15.876709 13.543152,-28.75 30.25,-28.75l0,0c8.022766,0 15.716736,3.028931 21.389771,8.419556c5.672974,5.393921 8.860229,12.708374 8.860229,20.330444l0,0c0,15.876709 -13.543274,28.750061 -30.25,28.750061l0,0c-16.706848,0 -30.25,-12.873352 -30.25,-28.750061l0,0zm15.125,0l0,0c0,7.938416 6.771729,14.375 15.125,14.375c8.35321,0 15.125,-6.436584 15.125,-14.375c0,-7.938354 -6.77179,-14.375 -15.125,-14.375l0,0c-8.353271,0 -15.125,6.436646 -15.125,14.375z" fill-opacity="null" stroke-opacity="null" stroke-width="0" fill="#0f7699"/>
  <path stroke="#000" id="svg_47" d="m554.499939,756.752625l0,0c0,-15.876709 13.543152,-28.75 30.25,-28.75l0,0c8.022766,0 15.716736,3.028931 21.389771,8.419556c5.672974,5.393921 8.860229,12.708374 8.860229,20.330444l0,0c0,15.876648 -13.543274,28.75 -30.25,28.75l0,0c-16.706848,0 -30.25,-12.873352 -30.25,-28.75l0,0zm15.125,0l0,0c0,7.938416 6.771729,14.375 15.125,14.375c8.35321,0 15.125,-6.436584 15.125,-14.375c0,-7.938354 -6.77179,-14.375 -15.125,-14.375l0,0c-8.353271,0 -15.125,6.436646 -15.125,14.375z" fill-opacity="null" stroke-opacity="null" stroke-width="0" fill="#0f7699"/>
  <path stroke="#000" id="svg_48" d="m479,721.252686l0,0c0,-15.876709 13.543152,-28.75 30.25,-28.75l0,0c8.022766,0 15.716736,3.028931 21.389771,8.419495c5.672974,5.393982 8.860229,12.708435 8.860229,20.330505l0,0c0,15.876587 -13.543274,28.75 -30.25,28.75l0,0c-16.706848,0 -30.25,-12.873413 -30.25,-28.75l0,0zm15.125,0l0,0c0,7.938354 6.771729,14.375 15.125,14.375c8.35321,0 15.125,-6.436646 15.125,-14.375c0,-7.938354 -6.77179,-14.375 -15.125,-14.375l0,0c-8.353271,0 -15.125,6.436646 -15.125,14.375z" fill-opacity="null" stroke-opacity="null" stroke-width="0" fill="#0f7699"/>
  <path stroke="#000" id="svg_49" d="m476.5,579.752808l0,0c0,-15.876709 13.543152,-28.75 30.25,-28.75l0,0c8.022766,0 15.716736,3.028931 21.389771,8.419495c5.672974,5.393982 8.860229,12.708435 8.860229,20.330505l0,0c0,15.876587 -13.543274,28.75 -30.25,28.75l0,0c-16.706848,0 -30.25,-12.873413 -30.25,-28.75l0,0zm15.125,0l0,0c0,7.938354 6.771729,14.375 15.125,14.375c8.35321,0 15.125,-6.436646 15.125,-14.375c0,-7.938354 -6.77179,-14.375 -15.125,-14.375l0,0c-8.353271,0 -15.125,6.436646 -15.125,14.375z" fill-opacity="null" stroke-opacity="null" stroke-width="0" fill="#0f7699"/>
  <path stroke="#000" id="svg_50" d="m398.000061,690.752686l0,0c0,-15.876709 13.543152,-28.75 30.25,-28.75l0,0c8.022766,0 15.716766,3.028931 21.389771,8.419495c5.673004,5.393982 8.86026,12.708435 8.86026,20.330505l0,0c0,15.876587 -13.543274,28.75 -30.250031,28.75l0,0c-16.706848,0 -30.25,-12.873413 -30.25,-28.75l0,0zm15.125,0l0,0c0,7.938354 6.771759,14.375 15.125,14.375c8.35321,0 15.125,-6.436646 15.125,-14.375c0,-7.938354 -6.77179,-14.375 -15.125,-14.375l0,0c-8.353241,0 -15.125,6.436646 -15.125,14.375z" fill-opacity="null" stroke-opacity="null" stroke-width="0" fill="#0f7699"/>
  <line stroke-linecap="null" stroke-linejoin="null" id="svg_51" y2="590.002132" x2="473.499594" y1="597.002126" x1="459.999605" fill-opacity="null" stroke-opacity="null" stroke="#000" fill="none"/>
  <line stroke="#000" stroke-linecap="null" stroke-linejoin="null" id="svg_52" y2="639.002092" x2="474.99959" y1="631.002098" x1="459.999606" fill-opacity="null" stroke-opacity="null" fill="none"/>
  <line stroke-linecap="null" stroke-linejoin="null" id="svg_53" y2="670.502066" x2="478.99959" y1="680.502058" x1="460.999604" fill-opacity="null" stroke-opacity="null" stroke="#000" fill="none"/>
  <line stroke-linecap="null" stroke-linejoin="null" id="svg_54" y2="708.502035" x2="474.499593" y1="704.002039" x1="461.999604" fill-opacity="null" stroke-opacity="null" stroke="#000" fill="none"/>
  <line stroke-linecap="null" stroke-linejoin="null" id="svg_55" y2="558.502157" x2="548.999533" y1="565.002152" x1="538.999541" fill-opacity="null" stroke-opacity="null" stroke="#000" fill="none"/>
  <line stroke-linecap="null" stroke-linejoin="null" id="svg_56" y2="601.002123" x2="551.99953" y1="593.002129" x1="538.499541" fill-opacity="null" stroke-opacity="null" stroke="#000" fill="none"/>
  <line stroke-linecap="null" stroke-linejoin="null" id="svg_57" y2="630.002099" x2="552.99953" y1="638.002093" x1="536.999543" fill-opacity="null" stroke-opacity="null" stroke="#000" fill="none"/>
  <line stroke-linecap="null" stroke-linejoin="null" id="svg_58" y2="672.002065" x2="549.999532" y1="662.502073" x1="533.999545" fill-opacity="null" stroke-opacity="null" stroke="#000" fill="none"/>
  <line stroke-linecap="null" stroke-linejoin="null" id="svg_59" y2="696.502045" x2="483.999586" y1="638.002093" x1="450.999613" fill-opacity="null" stroke-opacity="null" stroke="#000" fill="none"/>
  <line stroke-linecap="null" stroke-linejoin="null" id="svg_60" y2="703.502039" x2="553.999529" y1="711.002033" x1="540.49954" fill-opacity="null" stroke-opacity="null" stroke="#000" fill="none"/>
  <line stroke-linecap="null" stroke-linejoin="null" id="svg_61" y2="743.002007" x2="553.999529" y1="734.502014" x1="540.49954" fill-opacity="null" stroke-opacity="null" stroke="#000" fill="none"/>
  <line stroke="#000" stroke-linecap="null" stroke-linejoin="null" id="svg_62" y2="609.002113" x2="481.499587" y1="666.00207" x1="453.49961" fill-opacity="null" stroke-opacity="null" fill="none"/>
  <line stroke-linecap="null" stroke-linejoin="null" id="svg_63" y2="616.002111" x2="645.999454" y1="566.502151" x1="612.999481" fill-opacity="null" stroke-opacity="null" stroke-width="null" stroke="#000" fill="none"/>
  <line stroke-linecap="null" stroke-linejoin="null" id="svg_64" y2="634.002096" x2="635.999462" y1="625.502103" x1="616.499478" fill-opacity="null" stroke-opacity="null" stroke-width="null" stroke="#000" fill="none"/>
  <line stroke-linecap="null" stroke-linejoin="null" id="svg_65" y2="668.502068" x2="637.99946" y1="678.50206" x1="617.999477" fill-opacity="null" stroke-opacity="null" stroke-width="null" stroke="#000" fill="none"/>
  <line stroke-linecap="null" stroke-linejoin="null" id="svg_66" y2="686.002054" x2="653.999447" y1="742.002008" x1="615.999478" fill-opacity="null" stroke-opacity="null" stroke-width="null" stroke="#000" fill="none"/>
  <line stroke-linecap="null" stroke-linejoin="null" id="svg_67" y2="729.002019" x2="556.499527" y1="667.502069" x1="531.999547" fill-opacity="null" stroke-opacity="null" stroke-width="null" stroke="#000" fill="none"/>
  <line stroke-linecap="null" stroke-linejoin="null" id="svg_68" y2="578.002142" x2="555.499528" y1="626.502102" x1="528.49955" fill-opacity="null" stroke-opacity="null" stroke-width="null" stroke="#000" fill="none"/>
  <line stroke-linecap="null" stroke-linejoin="null" id="svg_69" y2="640.502091" x2="556.999526" y1="697.002045" x1="529.999548" fill-opacity="null" stroke-opacity="null" stroke-width="null" stroke="#000" fill="none"/>
  <line stroke-linecap="null" stroke-linejoin="null" id="svg_70" y2="664.002072" x2="552.99953" y1="596.002127" x1="534.499545" fill-opacity="null" stroke-opacity="null" stroke-width="null" stroke="#000" fill="none"/>
 </g>
</svg>